 <svg  version="1.0" xmlns="http://www.w3.org/2000/svg"  width="300.000000pt" height="84.000000pt" viewBox="0 0 300.000000 84.000000"  preserveAspectRatio="xMidYMid meet">  <g transform="translate(0.000000,84.000000) scale(0.100000,-0.100000)" fill="#41e64c" stroke="none"> <path d="M193 833 c-13 -2 -23 -12 -23 -21 0 -9 -4 -23 -9 -31 -8 -12 -13 -12 -36 3 -24 16 -28 16 -48 2 -39 -27 -52 -40 -66 -67 -12 -24 -11 -30 10 -58 12 -17 29 -31 37 -31 9 0 12 -6 8 -16 -17 -45 -16 -61 7 -95 36 -53 45 -189 13 -189 -23 0 -74 -114 -55 -125 5 -4 9 -15 9 -25 0 -11 10 -25 23 -31 12 -7 26 -18 30 -25 6 -11 42 -14 153 -14 135 0 146 1 151 19 3 11 13 21 23 24 11 3 25 20 32 38 13 29 11 37 -12 86 -14 29 -31 53 -38 53 -36 0 -32 104 6 175 22 39 28 91 14 110 -8 12 -32 14 -32 3 0 -5 3 -8 6 -7 9 1 24 -23 24 -39 0 -7 -5 -10 -10 -7 -6 4 -7 11 -4 17 4 6 2 8 -3 5 -6 -4 -17 1 -26 11 -21 23 -26 56 -8 57 8 0 16 6 19 13 5 16 -8 15 -31 -3 -13 -9 -17 -20 -12 -37 5 -19 4 -20 -5 -8 -10 13 -11 13 -7 -1 3 -8 -3 -21 -14 -27 -23 -14 -25 -39 -4 -39 14 0 20 11 16 31 -1 5 4 4 12 -2 8 -7 18 -8 22 -4 5 4 5 -2 0 -13 -16 -42 -23 -85 -14 -91 5 -3 9 -29 10 -57 1 -74 11 -103 35 -99 18 2 18 2 1 -9 -28 -16 -45 -4 -57 40 -6 22 -15 43 -20 46 -6 3 -10 11 -10 16 0 6 4 8 9 5 5 -3 11 14 13 39 2 35 0 45 -12 45 -13 0 -13 1 0 10 13 9 13 10 0 11 -10 0 -9 3 4 8 17 7 18 8 3 14 -17 6 -42 -24 -30 -37 3 -3 2 -6 -4 -6 -6 0 -13 11 -15 25 -3 14 -1 25 6 25 6 0 5 4 -3 9 -7 5 -9 11 -5 13 5 3 2 3 -6 0 -8 -2 -22 -6 -30 -7 -29 -4 -50 -17 -50 -31 0 -22 -42 -16 -70 9 -14 12 -21 19 -16 15 6 -5 18 -8 29 -8 10 0 15 -4 12 -10 -14 -23 28 -8 50 19 19 22 31 27 51 23 20 -3 25 -2 19 7 -4 7 -13 10 -21 7 -7 -3 -18 3 -23 12 -9 15 -10 15 -11 -4 0 -21 -44 -53 -57 -41 -3 4 -1 7 5 7 6 0 9 6 6 14 -3 9 3 17 15 21 12 3 21 11 21 16 0 6 -5 7 -12 3 -6 -4 -8 -3 -5 4 8 12 48 4 60 -12 5 -8 10 -6 17 4 5 8 10 11 10 6 0 -5 6 -3 14 3 7 6 21 9 30 5 10 -4 16 -1 16 9 0 23 -16 29 -30 12 -7 -9 -29 -15 -50 -15 -44 0 -80 35 -80 76 0 20 -5 24 -30 24 -25 0 -30 -4 -30 -24 0 -14 -4 -27 -9 -31 -6 -3 -8 5 -5 19 2 14 -2 31 -11 40 -19 18 -19 22 0 29 8 4 27 0 42 -8 34 -18 43 -19 43 -2 0 7 13 12 31 13 21 1 27 -2 20 -9 -14 -14 -14 -30 -1 -22 6 3 10 2 10 -4 0 -7 8 -7 26 -1 33 13 34 13 34 -5 0 -20 10 -19 27 3 13 15 14 14 10 -12 -3 -17 1 -35 8 -43 11 -10 17 -9 37 7 12 11 17 19 11 20 -7 0 -13 -4 -13 -10 0 -5 -8 -10 -17 -10 -15 0 -16 2 -3 10 10 6 11 10 3 10 -7 0 -13 9 -13 19 0 25 60 58 71 39 5 -8 2 -19 -8 -28 -12 -11 -17 -12 -20 -2 -6 17 -30 15 -30 -2 0 -8 7 -14 16 -14 9 0 24 -3 34 -7 12 -5 17 -3 17 9 0 10 8 16 23 16 19 -1 20 -2 6 -13 -14 -10 -14 -14 -3 -25 8 -7 14 -18 13 -25 0 -9 -2 -9 -6 1 -7 17 -20 15 -27 -4 -3 -8 -2 -12 3 -9 5 3 12 1 15 -4 11 -18 -17 -24 -30 -7 -14 20 -27 7 -13 -14 5 -8 9 -11 9 -6 0 5 6 4 13 -2 10 -8 20 -4 40 18 15 15 27 32 27 37 0 19 -26 63 -37 63 -7 0 -17 9 -23 20 -10 20 -40 27 -54 13 -14 -14 -81 -32 -84 -23 -2 6 -8 8 -13 4 -5 -3 -9 -1 -9 5 0 14 23 19 43 9 13 -7 17 -5 17 9 0 33 -17 46 -66 49 -27 1 -59 0 -71 -3z m106 -12 c18 -1 -5 -31 -25 -31 -8 0 -14 -9 -14 -20 0 -11 -4 -20 -10 -20 -5 0 -10 9 -10 20 0 17 -6 20 -27 18 -19 -2 -28 2 -31 14 -4 22 33 28 117 19z m-221 -122 c4 -51 11 -62 32 -48 13 9 12 10 -2 5 -24 -7 -23 9 1 26 10 7 17 21 15 31 -1 11 4 17 17 17 24 0 25 -20 2 -21 -16 0 -15 -1 1 -8 19 -7 18 -8 -4 -14 -19 -5 -21 -9 -12 -20 7 -8 9 -17 5 -20 -3 -4 -1 -7 5 -7 16 0 15 27 0 33 -8 3 -6 6 4 6 10 1 22 -9 29 -20 6 -12 7 -19 1 -15 -5 3 -12 -1 -16 -9 -3 -8 0 -15 7 -15 8 0 9 -2 1 -8 -6 -4 -15 -17 -19 -30 -8 -27 -41 -26 -39 1 3 26 -5 20 -22 -15 l-14 -33 4 35 c2 19 5 40 6 45 5 23 -1 36 -16 33 -10 -2 -19 3 -21 10 -3 7 1 10 11 6 9 -3 16 -1 16 5 0 6 -4 11 -10 11 -5 0 -7 6 -4 14 6 16 -19 16 -33 1 -4 -4 -2 -5 5 -1 6 4 12 2 12 -3 0 -12 -13 -15 -23 -5 -9 10 4 34 19 34 8 0 13 3 13 8 -3 17 2 23 13 20 7 -3 14 -24 16 -49z m318 -140 c19 -37 18 -43 -4 -21 -10 9 -18 24 -18 32 1 8 -5 14 -11 13 -7 -2 -13 4 -13 13 0 14 3 14 16 3 8 -7 22 -25 30 -40z m-173 -16 c-6 -17 -5 -17 14 0 11 9 24 17 29 17 5 0 2 -5 -6 -10 -13 -9 -13 -10 0 -10 12 -1 11 -3 -2 -11 -10 -5 -18 -20 -18 -32 1 -22 1 -22 14 2 11 19 14 21 19 7 6 -16 -25 -41 -37 -29 -3 3 -6 0 -6 -9 0 -8 7 -15 15 -15 8 0 15 5 15 11 0 6 5 4 10 -4 8 -13 10 -13 10 2 0 9 5 20 11 24 17 10 28 -16 18 -43 -14 -36 -11 -73 6 -79 8 -4 15 -13 15 -21 0 -8 -4 -11 -10 -8 -5 3 -10 1 -10 -5 0 -6 -6 -8 -12 -4 -7 4 -10 3 -5 -1 4 -5 17 -10 29 -12 12 -2 25 -7 28 -12 3 -5 14 -11 25 -14 11 -2 8 -3 -8 -2 -32 2 -45 -11 -27 -28 10 -9 11 -9 6 1 -5 8 1 12 19 12 16 0 28 -7 31 -17 3 -10 10 -26 15 -35 5 -11 5 -19 -1 -23 -6 -3 -10 -11 -10 -18 0 -8 3 -8 12 1 7 7 11 28 10 47 -2 19 2 35 8 35 16 0 12 -62 -7 -82 -17 -19 -63 -25 -63 -7 0 5 -5 7 -11 4 -6 -4 -8 -14 -4 -22 4 -13 3 -14 -10 -3 -9 7 -15 8 -15 2 0 -5 -13 -9 -30 -8 -47 3 -35 -12 13 -17 40 -3 40 -4 -10 -5 -29 -1 -53 2 -53 6 0 16 23 30 38 25 10 -4 13 -2 8 6 -4 7 -2 10 5 9 7 -2 18 7 24 19 8 16 15 19 22 12 8 -8 13 -7 18 2 5 7 4 10 -3 5 -6 -4 -12 3 -14 16 -2 13 -8 22 -15 21 -6 -1 -10 5 -9 14 0 9 -4 18 -11 20 -12 4 -11 -10 2 -40 12 -28 -19 -64 -59 -69 -19 -2 -33 -2 -31 1 3 2 0 10 -6 17 -19 24 -18 66 4 88 11 12 17 16 14 10 -5 -8 4 -11 26 -9 l32 2 -1 65 c-1 36 -6 74 -12 84 -8 15 -10 2 -9 -56 2 -61 -1 -75 -13 -75 -12 0 -15 13 -14 62 0 34 -3 60 -8 57 -4 -3 -8 2 -8 10 0 9 -5 16 -10 16 -6 0 -8 -10 -5 -22 3 -13 7 -45 9 -71 4 -43 2 -49 -20 -57 -17 -7 -22 -14 -17 -26 4 -11 2 -15 -4 -11 -7 5 -9 0 -6 -13 3 -12 0 -20 -6 -20 -7 0 -9 5 -6 10 4 6 3 10 -2 9 -43 -7 -50 25 -10 45 18 8 26 16 20 16 -20 0 -15 28 8 51 21 21 21 49 3 112 -5 15 -1 17 23 15 23 -2 29 1 31 20 2 12 -1 22 -7 22 -6 0 -8 -7 -5 -15 4 -8 1 -15 -5 -15 -12 0 -11 37 2 58 12 18 17 15 10 -5z m-62 -39 c2 2 4 -24 4 -59 0 -38 -5 -69 -12 -76 -7 -7 -13 -20 -13 -29 0 -10 -8 -27 -19 -39 -18 -21 -19 -21 -24 -2 -3 13 1 21 10 23 10 2 15 20 17 61 2 31 -1 57 -6 57 -13 0 -9 27 7 40 8 7 12 17 9 22 -4 6 -10 5 -16 -3 -7 -11 -8 -9 -4 5 5 13 2 17 -9 13 -15 -6 -29 6 -18 16 3 4 20 -2 38 -13 18 -11 34 -18 36 -16z m219 16 c8 -15 8 -25 0 -38 -11 -16 -11 -16 -6 0 3 10 1 20 -4 23 -10 6 -14 35 -5 35 2 0 9 -9 15 -20z m-293 -227 c-4 -3 0 -14 9 -24 9 -10 14 -25 11 -34 -5 -10 0 -15 15 -15 11 0 27 -8 35 -17 10 -12 12 -13 8 -3 -8 19 23 -18 37 -44 9 -17 7 -18 -28 -12 -79 14 -94 18 -94 26 0 14 23 17 55 9 27 -7 28 -7 12 5 -10 8 -29 13 -42 12 -21 -3 -24 1 -27 46 -3 47 -1 58 10 58 3 0 2 -3 -1 -7z m-17 -73 c0 -13 -1 -13 -10 0 -5 8 -10 22 -10 30 0 13 1 13 10 0 5 -8 10 -22 10 -30z"/> <path d="M239 242 c-4 -38 -2 -45 13 -48 25 -3 29 22 7 42 -12 10 -19 13 -20 6z"/> <path d="M2578 817 c-106 -34 -182 -135 -182 -242 0 -87 8 -135 32 -180 30 -60 84 -106 139 -121 44 -12 45 -13 15 -13 -40 -1 -85 21 -134 65 -34 31 -92 51 -118 42 -16 -5 100 -89 152 -110 54 -21 105 -22 142 -3 26 14 33 14 72 -1 75 -28 168 2 264 85 l35 30 -27 1 c-41 0 -78 -17 -124 -60 -42 -38 -93 -57 -131 -47 -12 3 -9 5 10 6 41 2 100 35 129 73 35 46 70 118 58 118 -7 0 -8 6 0 19 14 27 13 125 -2 175 -18 61 -101 140 -168 160 -62 19 -110 19 -162 3z m162 -38 c49 -22 90 -56 90 -73 -1 -6 -11 -24 -24 -40 -21 -25 -28 -28 -60 -22 -29 6 -42 3 -63 -14 l-27 -21 -32 36 c-18 19 -38 35 -44 35 -6 0 -18 7 -26 15 -22 22 -36 18 -22 -5 7 -12 24 -23 38 -27 33 -8 56 -33 64 -69 4 -16 15 -35 26 -42 18 -11 19 -10 14 17 -5 22 -1 32 21 49 28 23 45 21 45 -4 0 -8 7 -14 15 -14 8 0 15 -6 15 -14 0 -8 3 -22 6 -30 5 -12 2 -15 -12 -10 -18 7 -18 6 -2 -12 14 -14 21 -16 30 -6 9 9 9 15 0 24 -7 7 -12 18 -12 26 0 12 3 12 15 2 8 -6 19 -9 25 -5 16 10 12 33 -7 44 -15 8 -16 12 -5 22 10 11 12 10 12 0 0 -15 34 25 42 49 8 24 41 -48 34 -75 -3 -13 -2 -26 3 -29 15 -10 10 -55 -5 -49 -8 3 -14 0 -14 -6 0 -6 5 -11 10 -11 6 0 10 -7 10 -15 0 -9 -6 -12 -17 -9 -11 4 -14 3 -7 -3 6 -4 13 -16 17 -25 5 -14 1 -18 -16 -19 -12 0 -44 -9 -72 -18 -38 -14 -49 -23 -48 -37 4 -32 -17 -83 -40 -99 -36 -25 -42 -17 -12 15 45 47 36 113 -28 204 -19 28 -21 28 -34 10 -32 -42 -63 -115 -63 -148 0 -22 9 -45 26 -65 14 -17 21 -31 16 -31 -23 0 -62 62 -62 99 l0 38 -72 18 c-66 16 -73 20 -73 42 0 24 0 24 14 4 25 -38 62 -20 41 20 -10 18 -7 25 21 52 29 29 30 32 12 35 -25 4 -43 41 -43 89 0 51 18 30 22 -25 3 -42 4 -43 33 -38 49 10 52 23 12 60 l-36 34 21 27 c48 62 147 81 228 44z m-285 -179 c8 -13 -4 -50 -16 -50 -5 0 -9 14 -9 30 0 30 13 40 25 20z m235 -162 c27 -59 26 -103 -2 -122 -12 -9 -28 -16 -35 -16 -22 0 -53 38 -53 65 0 33 41 115 57 115 8 0 23 -19 33 -42z m-163 -38 c5 0 24 -83 20 -87 -10 -10 -46 18 -66 51 -30 47 -27 56 11 45 18 -5 34 -9 35 -9z m323 -4 c0 -8 -15 -31 -34 -50 -36 -39 -63 -48 -51 -18 3 9 9 29 12 44 3 15 13 29 22 31 33 9 51 7 51 -7z"/> <path d="M2850 555 c-17 -18 -21 -28 -13 -36 13 -13 43 15 43 42 0 24 -2 24 -30 -6z"/> <path d="M2510 480 c0 -28 4 -40 14 -40 8 0 21 -2 28 -5 9 -4 19 4 25 18 9 20 7 25 -23 45 -19 12 -36 22 -39 22 -3 0 -5 -18 -5 -40z"/> <path d="M2762 498 c-26 -16 -31 -25 -26 -42 9 -28 8 -28 38 -20 22 5 26 11 26 45 0 21 -1 39 -2 38 -2 0 -18 -10 -36 -21z"/> <path d="M2810 508 c0 -13 7 -18 28 -17 21 1 22 2 7 6 -11 3 -23 10 -27 17 -5 7 -8 5 -8 -6z"/> <path d="M1635 776 c-97 -45 -146 -119 -153 -229 -4 -58 0 -75 22 -122 80 -162 287 -200 419 -77 38 36 73 106 81 165 l7 48 -138 -3 -138 -3 0 -30 0 -30 103 0 c56 0 102 -4 102 -8 0 -42 -92 -133 -145 -143 -104 -19 -188 19 -232 106 -97 189 143 381 306 244 l28 -23 22 23 22 24 -33 26 c-79 59 -187 72 -273 32z m335 -272 c0 -14 -3 -14 -15 -4 -8 7 -15 14 -15 16 0 2 7 4 15 4 8 0 15 -7 15 -16z"/> <path d="M2071 772 c-53 -28 -64 -52 -40 -81 l19 -23 29 31 c54 57 147 33 167 -43 9 -39 -17 -79 -154 -236 l-122 -140 170 0 170 0 0 35 0 34 -100 -6 c-55 -3 -100 -3 -100 1 0 4 36 48 81 98 124 141 142 192 94 273 -41 71 -139 97 -214 57z m29 -437 c11 -13 8 -15 -14 -15 -25 0 -33 10 -19 23 10 11 19 8 33 -8z"/> <path d="M175 750 c-3 -5 -1 -10 5 -10 6 0 8 -4 5 -10 -3 -5 -1 -10 5 -10 7 0 10 -6 7 -13 -16 -42 70 -68 99 -30 20 26 17 39 -4 20 -20 -19 -67 -23 -77 -7 -3 6 -2 10 4 10 5 0 17 3 27 7 11 4 15 3 11 -4 -5 -7 0 -9 13 -6 11 3 20 9 20 13 0 13 -48 18 -59 7 -8 -8 -11 -7 -11 2 0 7 -4 9 -10 6 -5 -3 -10 1 -10 9 0 19 -17 30 -25 16z"/> <path d="M685 735 c-30 -29 -32 -68 -5 -95 41 -41 120 -12 120 45 0 31 -41 75 -70 75 -11 0 -32 -11 -45 -25z m79 -31 c17 -43 -5 -71 -45 -59 -23 8 -34 42 -19 60 16 20 56 19 64 -1z"/> <path d="M1151 724 c-24 -31 -25 -37 -10 -67 16 -29 28 -37 61 -37 30 0 68 34 68 61 0 30 -39 69 -70 69 -19 0 -36 -9 -49 -26z m68 -33 c8 -14 7 -22 -5 -32 -14 -11 -18 -10 -29 5 -16 21 -9 46 11 46 7 0 18 -9 23 -19z"/> <path d="M810 640 c-12 -23 -60 -50 -88 -50 -11 0 -31 9 -46 21 -22 17 -29 19 -42 8 -24 -20 -51 -79 -58 -129 -17 -122 85 -295 208 -354 45 -21 116 -32 116 -17 0 6 -11 11 -24 11 -14 0 -32 7 -40 16 -22 21 -20 27 3 14 11 -5 32 -10 47 -10 15 0 42 -12 61 -26 l34 -26 -3 38 c-3 36 -5 39 -43 45 -22 4 -53 12 -68 18 -16 6 -46 11 -68 11 -32 0 -46 7 -78 39 -62 62 -86 162 -57 232 39 93 134 120 239 67 31 -15 37 -16 37 -4 0 20 -51 77 -89 99 -29 17 -30 17 -41 -3z m-138 -61 c20 -11 20 -11 0 -32 -11 -12 -28 -46 -38 -74 -22 -62 -37 -70 -28 -15 4 20 8 48 9 62 3 39 4 42 17 34 7 -4 8 -3 4 4 -7 12 0 32 10 32 3 0 14 -5 26 -11z"/> <path d="M1049 628 c-42 -29 -89 -83 -89 -102 0 -4 12 1 28 12 129 92 295 -5 266 -156 -7 -39 -13 -48 -33 -50 -67 -10 -184 78 -174 130 4 19 10 25 21 21 10 -4 13 -2 8 5 -4 7 -26 12 -49 11 -40 -1 -41 -1 -14 -11 34 -12 37 -37 2 -31 -13 3 -30 11 -36 19 -15 18 -43 18 -59 0 -6 -8 -21 -16 -33 -18 -21 -3 -22 -8 -20 -78 3 -118 -11 -110 181 -110 l166 0 -32 -33 c-18 -19 -43 -34 -59 -35 -16 -1 -46 -15 -68 -31 -50 -36 -60 -59 -15 -36 42 22 52 10 17 -21 -21 -18 -40 -24 -73 -24 -47 0 -59 -14 -20 -24 29 -7 81 2 117 20 14 7 64 53 111 103 140 147 179 254 131 361 -11 25 -29 53 -40 63 -19 16 -21 16 -38 -3 -29 -32 -72 -26 -111 15 -18 19 -34 35 -36 35 -2 0 -24 -14 -49 -32z m235 -76 c13 -26 28 -112 19 -112 -2 0 -12 19 -23 43 -11 23 -25 50 -32 60 -11 14 -10 19 2 27 20 13 17 14 34 -18z m-344 -138 c0 -22 -4 -25 -27 -22 -20 2 -29 9 -31 26 -3 19 1 22 27 22 27 0 31 -4 31 -26z m65 1 c0 -14 -8 -21 -27 -23 -24 -3 -28 0 -28 23 0 23 4 26 28 23 19 -2 27 -9 27 -23z m72 -45 c3 -11 12 -20 19 -20 8 0 14 -5 14 -11 0 -5 5 -7 10 -4 6 3 16 3 23 -2 12 -8 19 -10 50 -16 10 -2 16 -7 15 -13 -2 -5 -5 -9 -8 -8 -3 1 -35 9 -71 18 -61 16 -67 20 -71 47 -5 33 11 40 19 9z m-162 -9 c7 -12 -12 -24 -25 -16 -11 7 -4 25 10 25 5 0 11 -4 15 -9z m45 -17 c0 -16 -5 -24 -12 -21 -20 6 -18 47 3 47 5 0 9 -12 9 -26z m50 11 c0 -8 -7 -15 -15 -15 -8 0 -15 7 -15 15 0 8 7 15 15 15 8 0 15 -7 15 -15z m-95 -44 c7 -12 -12 -24 -25 -16 -11 7 -4 25 10 25 5 0 11 -4 15 -9z m88 -6 c1 -5 -6 -11 -15 -13 -11 -2 -18 3 -18 13 0 17 30 18 33 0z"/> <path d="M284 615 c-4 -8 -11 -12 -17 -8 -6 3 -7 1 -3 -5 11 -18 26 -14 26 6 0 14 2 15 10 2 8 -13 10 -12 10 3 0 21 -18 23 -26 2z"/> <path d="M1100 453 c0 -8 80 -68 80 -60 0 2 -18 18 -40 36 -22 17 -40 28 -40 24z"/> <path d="M868 243 c-15 -18 155 -16 242 2 l65 13 -148 -1 c-105 -1 -152 -6 -159 -14z"/> <path d="M1833 155 c2 -5 19 -9 39 -8 35 0 41 -8 24 -35 -11 -19 3 -30 15 -12 9 13 10 12 5 -2 -3 -10 -1 -20 4 -23 5 -3 12 5 16 17 7 22 7 22 15 3 8 -20 8 -20 9 0 1 17 3 17 12 -5 6 -14 12 -20 15 -13 5 13 27 7 108 -32 70 -34 141 -40 158 -13 6 9 8 21 3 25 -4 4 -12 0 -17 -10 -23 -40 -169 2 -169 50 0 21 17 15 25 -9 7 -20 9 -17 12 17 3 22 10 43 16 47 6 4 -57 8 -141 10 -93 2 -151 -1 -149 -7z m195 -19 c13 15 62 19 62 6 0 -4 -9 -13 -20 -20 -17 -10 -20 -10 -21 5 0 15 -3 14 -11 -4 -16 -34 -48 -30 -48 5 1 23 2 25 13 11 10 -14 14 -14 25 -3z m36 -52 c4 -10 1 -14 -6 -12 -15 5 -23 28 -10 28 5 0 13 -7 16 -16z"/> <path d="M2414 125 c1 -19 6 -35 11 -35 7 0 9 15 7 35 -5 45 -19 45 -18 0z"/> <path d="M2451 124 c1 -27 3 -31 6 -15 l5 25 19 -25 c13 -17 19 -20 19 -8 0 8 -11 26 -25 39 l-25 23 1 -39z"/> <path d="M2520 125 c0 -30 3 -35 24 -35 16 0 27 7 31 20 8 25 -10 50 -36 50 -15 0 -19 -7 -19 -35z m40 -6 c0 -10 -4 -19 -10 -19 -5 0 -10 12 -10 26 0 14 4 23 10 19 6 -3 10 -15 10 -26z"/> <path d="M2590 125 c0 -46 15 -46 16 0 0 19 -3 35 -8 35 -4 0 -8 -16 -8 -35z"/> <path d="M2632 131 c-14 -41 -15 -51 -2 -31 9 13 11 13 19 0 17 -25 23 -4 8 31 l-13 34 -12 -34z"/> <path d="M2225 134 c-19 -19 -19 -28 0 -44 21 -17 45 -5 45 24 0 29 -24 40 -45 20z m33 -21 c-5 -25 -28 -28 -28 -4 0 12 6 21 16 21 9 0 14 -7 12 -17z"/> <path d="M2160 129 c0 -6 7 -9 15 -5 8 3 15 1 15 -5 0 -6 5 -7 10 -4 6 4 8 11 5 16 -9 13 -45 11 -45 -2z"/> <path d="M2280 129 c0 -6 7 -9 15 -5 8 3 15 1 15 -5 0 -5 -7 -12 -15 -15 -21 -8 -19 -24 3 -24 14 0 19 8 20 30 0 23 -4 30 -19 30 -10 0 -19 -5 -19 -11z"/> <path d="M2330 130 c0 -5 8 -6 18 -3 15 6 15 5 3 -10 -9 -11 -10 -17 -2 -17 6 0 11 -7 11 -16 0 -10 -6 -14 -15 -10 -8 3 -15 1 -15 -4 0 -6 9 -10 20 -10 22 0 41 31 23 37 -6 2 -9 13 -6 23 4 15 0 20 -16 20 -11 0 -21 -4 -21 -10z"/> <path d="M2170 94 c-10 -11 -9 -14 8 -14 25 0 37 16 18 23 -8 3 -20 -1 -26 -9z"/> <path d="M196 77 c6 -17 1 -18 -64 -13 -63 5 -70 3 -75 -14 -3 -11 2 -25 11 -32 12 -10 14 -10 8 0 -4 6 -2 12 3 12 6 0 11 -4 11 -8 0 -4 9 -8 19 -8 11 0 17 4 15 8 -7 11 14 10 37 -2 10 -6 19 -7 19 -2 0 5 7 9 15 9 8 0 15 -4 15 -9 0 -4 4 -8 8 -8 14 0 6 51 -12 68 -16 16 -17 16 -10 -1z m-10 -34 c-10 -11 -36 -12 -36 -2 0 5 10 9 22 9 12 0 18 -3 14 -7z"/> <path d="M406 69 c10 -12 18 -23 17 -25 -7 -10 -2 -34 7 -34 17 0 11 46 -8 63 -27 24 -39 21 -16 -4z"/> <path d="M290 60 c0 -5 5 -10 10 -10 6 0 10 -5 10 -11 0 -5 -6 -7 -12 -3 -9 5 -8 2 1 -10 11 -13 16 -14 22 -4 7 10 9 10 9 1 0 -7 4 -13 9 -13 5 0 8 11 7 25 0 16 -6 23 -13 20 -7 -2 -13 0 -13 5 0 6 -7 10 -15 10 -8 0 -15 -4 -15 -10z"/> <path d="M237 53 c-12 -11 -8 -22 13 -33 18 -9 20 -8 20 15 0 24 -18 34 -33 18z"/> <path d="M354 48 c-11 -17 25 -40 41 -25 7 7 9 14 4 15 -5 2 -7 8 -3 13 3 5 -4 9 -15 9 -11 0 -23 -5 -27 -12z"/> </g> </svg> 